<?xml version="1.0" encoding="utf-8"?>
<!-- Generator: Adobe Illustrator 19.1.0, SVG Export Plug-In . SVG Version: 6.00 Build 0)  -->
<svg version="1.1" id="Layer_1" xmlns="https://www.w3.org/2000/svg" xmlns:xlink="https://www.w3.org/1999/xlink" x="0px" y="0px"
	 viewBox="0 0 90 90" style="enable-background:new 0 0 90 90;" xml:space="preserve">
<style type="text/css">
	.st0{fill:#E6E6E6;}
	.st1{fill:#333333;}
	.st2{fill:#8CC63F;}
	.st3{fill:#FF0000;}
	.st4{fill:none;stroke:#E6E6E6;stroke-width:3;stroke-miterlimit:10;}
	.st5{fill:#990000;}
	.st6{fill:#FFFFFF;}
	.st7{fill:#EE3424;}
	.st8{fill:#0055A4;}
	.st9{fill:#008A5F;}
	.st10{fill:#FDBB30;}
	.st11{fill:#01247D;}
	.st12{fill:#CF142B;}
	.st13{fill:#009A63;}
	.st14{fill:#FF823D;}
	.st15{fill:#BF0A30;}
	.st16{fill:#002868;}
	.st17{fill:#004990;}
	.st18{fill:#EF3E42;}
</style>
<path class="st1" d="M83.3,73.9H6.7V16.1h76.6V73.9L83.3,73.9z M15.8,68.5h58.5L55,48.8l-3.6,3.7c-1.6,1.6-3.8,2.5-6.2,2.5
	c0,0,0,0,0,0c-2.4,0-4.6-0.9-6.2-2.5l-3.7-3.8L15.8,68.5L15.8,68.5z M12,25.3v39.4l19.4-19.8L12,25.3L12,25.3z M58.8,45.1L78,64.7
	v-39L58.8,45.1L58.8,45.1z M15.8,21.5l26.9,27.3c0.6,0.6,1.5,0.9,2.4,0.9c0,0,0,0,0,0c0.9,0,1.9-0.3,2.4-0.9l27.1-27.3H15.8
	L15.8,21.5z"/>
</svg>
